<svg version="1.1" id="Layer_1" xmlns="http://www.w3.org/2000/svg" xmlns:xlink="http://www.w3.org/1999/xlink" x="0px" y="0px"
	 width="100%" viewBox="0 0 992 992" enable-background="new 0 0 992 992" xml:space="preserve">
<path fill="#000000" opacity="1.000000" stroke="none" 
	d="
M868.937256,451.278442 
	C867.276123,467.554779 869.529968,484.032532 863.295044,499.053986 
	C856.646484,515.072144 853.683777,532.366577 846.041016,547.898438 
	C840.330322,559.503967 834.203796,571.033630 827.290283,581.916687 
	C822.589233,589.316956 815.065247,594.940918 809.519409,602.006958 
	C801.409851,612.339600 792.773254,622.264038 785.787231,633.458862 
	C780.703674,641.605164 778.824036,651.139587 774.307678,659.466736 
	C766.248291,674.326477 760.890381,690.209961 755.110901,706.002808 
	C751.940369,714.666504 746.915710,722.769775 741.916687,730.608887 
	C737.918640,736.878235 734.990417,743.489685 732.470459,750.372925 
	C731.191406,753.866638 729.546326,757.203613 726.787292,759.675293 
	C717.220459,768.245544 712.618713,779.588623 708.664673,791.335205 
	C708.186890,792.754639 707.978821,794.429138 707.079224,795.517090 
	C697.340393,807.295227 695.139404,821.823059 691.572693,835.996155 
	C689.219604,845.346619 683.284119,853.361389 679.224854,862.104553 
	C672.795044,875.953491 662.955566,887.134766 651.984009,897.518860 
	C645.084106,904.049316 640.542175,912.616516 633.585022,919.203491 
	C627.253662,925.198059 620.445740,930.453125 613.174744,935.201721 
	C606.051331,939.853882 597.644409,939.918823 589.786682,941.906189 
	C585.605225,942.963806 581.241516,943.286743 576.973267,944.018494 
	C568.578735,945.457581 561.321777,948.803162 557.136475,956.729248 
	C553.428284,963.751831 547.309448,966.200317 539.978027,968.695862 
	C526.251953,973.367981 512.527161,971.877502 498.979889,970.605042 
	C489.306976,969.696594 479.284729,967.573425 470.651306,961.938049 
	C468.078430,960.258667 466.484772,958.346985 465.937347,955.320068 
	C463.463013,941.638428 456.349182,930.068726 447.227875,920.232300 
	C439.001465,911.360840 428.579193,904.866150 416.616425,901.349304 
	C411.023621,899.705078 406.198792,901.337219 401.264404,903.592773 
	C389.143982,909.133240 376.765625,910.765564 363.965668,905.845703 
	C356.852997,903.111755 353.251312,897.884583 352.056396,890.521790 
	C349.960449,877.607483 345.058899,866.886536 334.573730,857.601379 
	C323.997528,848.235657 311.992554,840.527649 302.383179,830.025879 
	C299.094482,826.431702 296.537842,822.360657 293.546143,818.588257 
	C291.539886,816.058594 291.421722,812.692383 291.492828,809.490723 
	C291.632690,803.196411 291.948303,796.902588 291.931213,790.609314 
	C291.919891,786.426941 291.628418,782.200378 287.397369,779.641602 
	C286.328522,778.995239 286.019409,777.756470 286.041443,776.557373 
	C286.270599,764.112549 282.934601,752.045166 280.179657,740.234802 
	C277.690338,729.563110 273.850708,718.379639 265.962311,709.826111 
	C261.037262,704.485779 257.345093,698.373535 253.757202,692.226746 
	C247.243271,681.067139 239.436234,670.977722 230.333267,661.875061 
	C227.398300,658.940125 224.219711,656.213257 220.939560,653.665405 
	C208.005661,643.619141 207.098297,629.881592 210.184052,615.660828 
	C211.782486,608.294250 212.350266,600.443665 216.416855,593.665100 
	C217.382462,592.055603 216.794708,590.103394 216.286591,588.299194 
	C214.999664,583.729553 212.885025,579.642761 209.647018,576.135010 
	C198.370972,563.919617 186.544235,552.152039 176.039703,539.304382 
	C167.789551,529.213867 159.489975,518.717896 156.906357,505.245300 
	C156.687195,504.102386 156.076111,502.942505 156.183762,501.843048 
	C157.511948,488.277130 153.335037,475.160217 152.992523,461.736725 
	C152.810822,454.616058 150.048721,448.061584 148.015640,441.418854 
	C144.136581,428.744720 142.716217,415.698120 140.985580,402.675964 
	C139.362503,390.463074 139.074219,378.174042 139.158966,365.882019 
	C139.204758,359.236145 139.065964,352.490448 140.131821,345.973175 
	C141.735870,336.164948 139.499893,326.710754 138.551453,317.172760 
	C136.464249,296.182983 140.037033,275.916687 146.174316,256.110962 
	C149.120926,246.601944 153.020432,237.295563 155.727280,227.715546 
	C158.089630,219.354706 162.258347,212.602310 168.288467,206.660721 
	C176.512634,198.557266 183.168640,189.184006 189.291382,179.482315 
	C195.521576,169.610413 202.450745,160.246735 209.129837,150.698898 
	C213.822617,143.990494 220.724808,140.266159 227.986923,137.276474 
	C234.602295,134.553040 241.369659,132.105347 248.235336,130.102966 
	C262.306824,125.999016 274.098450,118.326385 283.112610,107.009453 
	C288.950043,99.680740 296.035248,94.632721 304.350555,90.973602 
	C318.986481,84.533104 333.324310,77.451561 347.852417,70.801201 
	C360.454468,65.032501 374.376892,63.223518 387.820068,60.012875 
	C398.176544,57.539433 408.354950,54.303417 418.571289,51.267712 
	C423.267883,49.872150 426.702637,47.058823 428.352051,42.131062 
	C430.380035,36.072365 435.930756,34.719490 441.211365,34.281490 
	C450.960907,33.472805 460.787994,32.140015 470.543396,34.575397 
	C473.046906,35.200386 475.481201,34.563534 477.914795,33.862953 
	C488.196991,30.902868 498.565369,28.627007 509.398468,29.866907 
	C512.414856,30.212143 515.470581,29.761795 518.230896,28.563065 
	C525.511108,25.401478 533.262573,23.854340 540.982544,23.024134 
	C552.048401,21.834114 563.227905,22.885078 574.337708,23.439194 
	C593.886536,24.414219 610.770752,31.792326 625.056335,45.216354 
	C628.102661,48.078938 631.894958,49.837601 635.738342,51.559998 
	C650.631836,58.234524 666.080444,63.311695 681.412231,68.812180 
	C694.880615,73.644150 708.328186,79.376587 721.048828,86.220840 
	C729.395874,90.711906 734.545166,98.941872 740.829163,105.795837 
	C742.512146,107.631485 743.928650,109.952927 745.989746,111.158722 
	C754.932739,116.390656 761.637512,124.086670 768.720459,131.335434 
	C774.513550,137.264236 782.040588,140.657333 788.495361,145.637772 
	C801.726013,155.846436 810.173218,169.840240 820.103821,182.744247 
	C826.158081,190.611206 830.403809,199.063446 832.396606,208.627228 
	C833.870850,215.702332 837.514954,220.809998 844.056580,223.751617 
	C847.011169,225.080200 848.713135,227.373810 850.077271,230.129562 
	C854.581055,239.227997 859.115479,248.311325 863.658203,257.390411 
	C865.626770,261.324860 865.386780,265.573395 864.956299,269.665131 
	C863.805420,280.605499 867.143005,290.359772 872.331909,299.647125 
	C875.283020,304.929199 875.284302,310.518402 874.574280,316.178009 
	C873.684326,323.272003 872.533508,330.334442 871.426758,337.399750 
	C868.790039,354.231659 870.066345,370.918549 873.120483,387.559784 
	C874.759216,396.488647 875.147034,405.645294 873.128235,414.368286 
	C871.053650,423.332153 870.134338,432.419647 868.395874,441.394531 
	C867.771606,444.617157 868.546875,447.687286 868.937256,451.278442 
M681.498657,279.999939 
	C679.601868,278.642212 677.751160,277.213928 675.800903,275.937927 
	C660.166016,265.708313 638.984314,270.697205 631.126892,287.527832 
	C626.349731,297.760406 624.129822,308.626373 620.859253,319.243713 
	C619.737854,322.884064 620.157471,325.768433 622.417480,328.961517 
	C638.703796,351.972137 637.557129,383.529083 617.052734,405.088257 
	C608.249573,414.344330 597.663269,418.538605 585.379822,418.164612 
	C576.612549,417.897705 568.045227,415.895325 563.522888,406.827271 
	C562.094543,403.963104 560.532227,401.080292 563.224182,398.058197 
	C566.020691,394.918671 568.714478,397.339508 571.415161,398.226074 
	C572.677979,398.640594 573.877075,399.245056 575.122498,399.717438 
	C585.682068,403.722382 594.898071,401.430725 603.394653,394.212189 
	C615.504333,383.924103 618.264832,370.392731 614.809326,356.155273 
	C611.311768,341.744324 601.269287,332.461517 586.297180,329.210114 
	C583.441223,328.589905 580.116638,328.051392 579.772034,324.132782 
	C579.415344,320.076691 581.745300,317.492310 585.104065,315.900940 
	C588.611755,314.238983 592.496643,313.643677 596.313721,313.979126 
	C600.968994,314.388275 603.786194,312.411194 605.995300,308.541626 
	C610.501343,300.648651 613.140381,292.083130 615.608765,283.428192 
	C617.689026,276.134186 616.639343,269.295776 612.943176,262.739288 
	C612.053162,261.160614 611.334717,259.423767 610.891235,257.670197 
	C610.323486,255.425156 610.979553,253.406219 612.841431,251.852661 
	C614.698792,250.302841 616.644775,250.705109 618.422302,251.765671 
	C620.700806,253.125137 622.958374,254.587967 624.978210,256.297729 
	C628.445923,259.233063 632.092651,260.302948 636.504150,258.671326 
	C638.351562,257.988068 640.391296,257.787659 642.361328,257.481598 
	C645.691833,256.964172 647.184753,255.299454 647.012939,251.727402 
	C646.568542,242.492065 643.071045,234.592636 636.995605,227.800949 
	C622.304504,211.378052 604.635437,204.149963 582.433228,209.396271 
	C554.274048,216.050201 542.076355,240.948715 543.464233,262.596313 
	C543.919128,269.691742 546.831299,272.781036 553.855957,274.869537 
	C556.885864,275.770355 559.983215,276.470490 562.959900,277.517548 
	C566.498291,278.762115 570.317017,280.460114 569.835510,284.912323 
	C569.298584,289.876129 564.787598,288.966278 561.483704,288.948059 
	C545.343140,288.859161 532.397888,294.920227 524.567383,309.287628 
	C517.183289,322.835938 505.745636,329.145660 491.049957,331.469177 
	C475.151581,333.982819 459.588562,338.103394 446.980408,348.772644 
	C433.577942,360.114044 418.062531,366.358521 401.622314,372.025177 
	C381.604767,378.924927 366.090302,392.634674 358.414551,413.040436 
	C350.071442,435.220184 353.220612,456.305115 367.531128,475.340637 
	C382.105011,494.726410 405.926697,506.820099 433.521942,500.126801 
	C449.953674,496.141205 462.951904,487.140778 474.326843,475.391663 
	C477.795807,471.808624 481.440735,470.374084 486.089966,469.976715 
	C503.500244,468.488617 519.317566,463.224548 531.835754,450.285187 
	C533.827393,448.226532 536.208191,446.238922 539.290894,447.083435 
	C547.517578,449.337219 555.710754,448.482513 564.048767,447.859222 
	C581.604248,446.546936 596.508789,439.872162 608.980835,427.548645 
	C610.992554,425.560913 612.968750,423.505829 615.183228,421.763977 
	C617.298340,420.100372 619.888367,418.573303 622.507935,420.323547 
	C625.401794,422.257050 624.597534,425.369537 623.760620,428.064240 
	C622.216614,433.035950 619.468262,437.463379 616.646973,441.773376 
	C614.662903,444.804413 614.893799,447.187408 617.303833,449.723419 
	C628.623779,461.635162 641.458618,470.402832 658.565063,471.732269 
	C678.566711,473.286743 699.642639,461.014801 707.208496,442.609955 
	C708.776550,438.795502 709.681335,434.759735 707.962158,430.875885 
	C706.503174,430.290466 705.587280,430.837982 704.840820,431.447998 
	C699.335571,435.947021 692.647949,437.479614 685.958557,438.827606 
	C667.621155,442.522766 652.200867,429.110718 653.772888,410.877655 
	C654.154236,406.455109 655.249329,402.406616 660.201050,400.549042 
	C663.096130,399.463013 664.650146,400.114471 665.527100,402.913116 
	C666.371887,405.609131 667.130493,408.333710 668.035767,411.008911 
	C671.030701,419.859711 679.277344,424.815552 688.124695,421.865845 
	C707.361084,415.452362 723.900513,399.331421 723.450623,376.270020 
	C723.216187,364.257690 711.363770,346.720367 700.160828,342.200989 
	C693.266479,339.419769 687.782410,342.264313 685.877991,349.397675 
	C684.809265,353.400848 682.598022,356.489990 677.459961,357.384033 
	C675.489563,349.258179 673.172302,341.459717 671.813477,333.497711 
	C670.862000,327.922638 674.249023,324.769684 679.929382,324.693237 
	C684.759583,324.628204 689.591797,324.673798 694.422729,324.716217 
	C696.882507,324.737793 698.966370,323.711975 699.358032,321.368256 
	C699.980774,317.641083 700.962097,313.893280 700.228271,310.015167 
	C697.924255,297.838531 691.566406,288.178131 681.498657,279.999939 
M468.285431,263.086395 
	C482.564575,246.671356 500.016785,240.274902 521.514160,245.762146 
	C529.279846,247.744339 530.854370,246.655228 531.673401,238.869583 
	C533.114685,225.170807 539.272461,214.609909 551.028931,207.348938 
	C553.292725,205.950760 555.431213,204.350632 557.684998,202.935303 
	C562.519165,199.899658 562.508545,198.427399 557.815979,195.153214 
	C534.105103,178.609192 493.819489,186.396484 480.266907,208.470047 
	C477.002716,213.786545 473.949707,219.353485 472.674377,225.214340 
	C470.720001,234.195969 465.733582,238.269653 457.037598,238.797379 
	C456.375854,238.837540 455.714630,238.967896 455.064789,239.109619 
	C444.114014,241.497742 434.218628,246.012817 426.059235,253.848831 
	C408.634308,270.583252 403.788879,291.022278 408.536957,314.200195 
	C409.167389,317.277740 409.471375,320.138611 406.777252,322.460052 
	C402.405975,326.226685 393.607727,327.310730 388.891418,324.164246 
	C383.347961,320.465912 378.116913,316.286743 373.805481,311.139435 
	C371.735199,308.667847 370.039398,305.876495 371.739746,302.478577 
	C373.450714,299.059509 376.754303,298.875916 379.948181,298.959076 
	C390.070068,299.222595 390.072479,299.277344 391.539581,289.112244 
	C391.682220,288.123779 391.681793,287.113495 391.844910,286.129425 
	C394.744507,268.633240 402.498993,253.670547 415.427734,241.499313 
	C424.590515,232.873367 436.091766,228.200958 447.341888,223.174973 
	C451.463043,221.333847 454.889130,218.789459 456.844421,214.732330 
	C460.011810,208.160217 464.586121,202.739258 469.773438,197.723862 
	C471.770538,195.792908 474.028870,193.937561 474.382599,190.860840 
	C472.806030,188.466019 470.190308,188.043289 467.851501,187.473114 
	C459.643372,185.472076 451.302094,185.421326 443.108337,187.299652 
	C424.509521,191.563293 406.613434,205.635010 406.409424,227.132996 
	C406.379425,230.293365 406.132751,233.451126 406.029877,236.611511 
	C405.887665,240.979263 403.484772,242.833405 399.297394,242.883545 
	C393.056000,242.958267 389.005737,238.511307 389.079132,231.306076 
	C389.140656,225.261765 390.738159,219.449905 392.154602,213.620193 
	C393.522736,207.989349 392.829193,207.015442 387.007904,207.394867 
	C370.770203,208.453156 347.921265,221.284760 345.044922,242.624863 
	C343.603119,253.321533 344.026947,253.635849 353.348755,251.074677 
	C359.182526,249.471832 365.167145,248.837265 371.101013,250.250427 
	C374.136871,250.973434 377.424316,252.135376 377.283966,256.300934 
	C377.152008,260.217957 375.235657,262.885559 371.345490,263.932770 
	C369.582092,264.407471 367.819122,264.901245 366.031281,265.264893 
	C340.463989,270.465576 330.722351,285.516022 330.428864,310.743134 
	C330.327850,319.427460 334.776245,326.232300 341.984802,331.214844 
	C343.601135,332.332062 345.891113,332.099548 347.262360,334.120270 
	C346.943146,334.806488 346.772308,335.683411 346.250580,336.217468 
	C340.264465,342.345123 328.429565,341.460449 323.193207,334.686951 
	C316.956207,326.619110 315.413055,317.212585 314.987183,307.424896 
	C314.752319,302.027863 314.089722,301.530609 309.019592,303.404419 
	C303.831787,305.321716 299.150513,308.101501 294.887726,311.715607 
	C285.152313,319.969635 280.252167,330.948761 276.986542,342.843353 
	C270.568176,366.221497 270.855316,388.654053 286.676300,408.801483 
	C297.806702,422.975586 311.833710,431.331055 330.352997,430.988892 
	C333.701752,430.926971 335.513275,429.868988 336.069275,426.278809 
	C336.983368,420.376526 338.155334,414.507172 340.276428,408.860077 
	C343.295807,400.821472 343.202881,400.843079 334.657959,398.430023 
	C320.048157,394.304291 310.371368,384.939301 305.915375,370.471893 
	C304.116150,364.630341 303.822998,358.642334 307.697205,353.213165 
	C309.519379,350.659607 311.812653,349.308563 314.974060,350.145111 
	C317.848206,350.905670 317.907288,353.342072 318.166656,355.720978 
	C319.166138,364.888580 323.773773,372.066589 331.067352,377.382019 
	C339.812622,383.755402 349.847565,384.596985 357.171631,379.048859 
	C366.195190,372.213409 375.143982,365.286194 384.326447,358.657837 
	C387.291290,356.517670 389.945648,353.894379 389.928040,349.687958 
	C389.915680,346.730896 391.818909,346.615662 394.064148,347.161224 
	C400.943573,348.832794 407.542175,347.846008 414.139587,345.466644 
	C424.621216,341.686340 433.641479,335.427582 442.800812,329.338562 
	C446.515350,326.869171 447.266998,324.085602 445.359039,320.034546 
	C442.562042,314.095917 441.559235,307.619629 441.003662,301.151825 
	C440.692719,297.531647 440.737610,293.348450 444.280151,291.235931 
	C447.313385,289.427124 450.746399,290.749359 453.804230,292.307404 
	C455.700256,293.273376 456.900604,294.740234 457.359497,296.854645 
	C457.957458,299.610077 458.463898,302.404816 459.330048,305.078888 
	C461.756287,312.569733 468.537628,317.761292 474.860077,316.511536 
	C482.025879,315.095093 489.193481,313.550873 496.020477,310.762085 
	C502.291901,308.200226 506.713745,304.055695 508.199402,297.272675 
	C508.872620,294.199036 510.607330,291.883698 512.715637,289.666656 
	C516.987732,285.174255 521.773132,281.320221 526.807068,277.737366 
	C528.774963,276.336761 531.085327,275.272369 532.480225,272.786835 
	C525.463684,267.122589 517.878601,262.866669 509.520477,260.612671 
	C500.193939,258.097504 487.842743,264.921478 483.859528,273.790588 
	C482.870697,275.992371 482.454987,278.856354 479.276794,279.105896 
	C472.551819,279.633942 465.792908,270.465851 468.285431,263.086395 
M515.908508,762.553528 
	C521.105835,742.297668 528.621460,723.002808 538.922913,704.740173 
	C550.606750,684.026794 563.588867,664.392944 581.976868,648.901855 
	C583.839600,647.332581 583.573181,645.946350 582.591309,644.137146 
	C574.241516,628.752747 567.064575,612.825439 560.715698,596.521484 
	C559.743713,594.025452 558.371765,592.701599 555.420593,592.122620 
	C542.829590,589.652832 531.040527,585.094543 521.814453,575.790833 
	C516.008423,569.935974 509.408173,568.481018 501.421509,569.109619 
	C482.509125,570.598328 463.549683,571.560791 444.558136,570.783325 
	C442.957001,570.717773 441.622040,570.621338 441.051025,572.589050 
	C438.719238,580.624084 434.051819,587.723938 431.412537,595.574280 
	C425.832703,612.170959 417.868530,627.704895 410.828796,643.647644 
	C409.684692,646.238708 410.178162,647.550171 412.116119,649.103638 
	C424.871613,659.328064 434.656891,672.206177 443.556122,685.672485 
	C466.307800,720.100098 477.863617,758.524963 483.303436,799.104309 
	C484.035339,804.564270 482.154877,810.021729 484.174652,815.406067 
	C486.168427,820.721130 491.676392,823.586548 498.997314,822.664368 
	C504.573456,821.961975 509.542908,817.299500 509.155334,812.089050 
	C507.909912,795.344971 512.115540,779.406921 515.908508,762.553528 
M624.552917,541.051758 
	C630.370117,539.004272 636.049744,536.618225 641.447021,533.639587 
	C656.192993,525.501831 667.413086,514.558044 670.355347,497.045807 
	C671.293762,491.460236 670.329407,489.893097 664.713440,490.079742 
	C653.108582,490.465454 642.309937,487.886627 632.023621,482.522278 
	C625.088623,478.905609 617.981934,475.631042 611.447571,471.280090 
	C607.661072,468.758789 603.486572,466.972473 599.004578,466.350098 
	C578.623230,463.519897 559.006714,467.027008 539.888916,473.996948 
	C535.988892,475.418793 533.994019,478.567749 533.392883,482.746063 
	C532.062256,491.995361 535.650391,499.973755 540.626953,507.063568 
	C558.823486,532.986816 587.843018,550.772888 624.552917,541.051758 
M507.128265,523.363159 
	C518.850708,535.733154 532.389709,546.253662 540.925171,561.771790 
	C545.474609,570.042969 555.388977,572.457703 564.939087,572.592773 
	C568.095947,572.637390 570.691284,570.995483 572.106323,567.992554 
	C573.447693,565.145752 572.019348,562.834534 570.456360,560.617126 
	C568.592896,557.973572 565.907776,556.257202 563.297974,554.473877 
	C555.868408,549.397034 548.658569,544.034424 542.255249,537.686157 
	C528.994019,524.538879 518.127747,509.719177 511.372437,492.178986 
	C509.653137,487.714722 507.200500,486.226410 502.613831,487.921448 
	C498.876648,489.302490 494.902802,490.043243 491.165985,491.425110 
	C486.484283,493.156433 482.137238,495.514252 479.196625,500.371429 
	C487.973022,508.509460 498.163086,514.658936 507.128265,523.363159 
M472.481873,554.978088 
	C481.908478,555.098389 491.185822,553.984436 500.286774,552.237488 
	C500.408752,550.064514 499.311615,549.189331 498.325378,548.347351 
	C490.997314,542.091309 483.656342,535.849854 476.270050,529.662781 
	C473.860504,527.644470 471.024841,527.095703 467.867004,527.333618 
	C458.924622,528.007568 449.974365,528.710999 441.014893,528.958435 
	C437.330322,529.060181 435.756531,530.700989 435.558441,533.893372 
	C435.260406,538.695984 435.421234,543.526245 435.156799,548.332092 
	C434.936249,552.340210 436.509827,553.861633 440.600555,554.082031 
	C450.893311,554.636719 461.184082,554.939941 472.481873,554.978088 
M303.231140,257.726837 
	C291.528931,268.236115 284.923767,281.083099 284.447357,297.303406 
	C286.985931,297.003326 288.052795,295.592804 289.383728,294.700500 
	C295.615723,290.522339 301.972351,285.627106 309.278809,284.773407 
	C317.314270,283.834473 320.140991,278.691711 324.390839,273.365143 
	C331.364624,264.624542 329.888672,255.563751 328.313660,245.675766 
	C318.422028,246.477539 310.932709,251.523804 303.231140,257.726837 
z"/>
<path fill="#000000" opacity="1.000000" stroke="none" 
	d="
M461.012695,398.051727 
	C464.017822,395.894012 466.302124,391.426514 470.017944,393.594391 
	C474.108734,395.980957 471.896362,400.622620 471.087585,404.167572 
	C468.981812,413.397430 458.722870,420.176208 447.262970,420.335388 
	C436.763458,420.481262 427.250183,423.129181 419.713959,430.993774 
	C412.498230,438.523865 410.881714,449.790070 415.815155,459.033813 
	C416.755371,460.795471 417.823486,462.489136 418.753845,464.255646 
	C420.825287,468.188965 419.761475,470.293243 415.298767,471.201111 
	C410.006195,472.277771 404.132874,469.069580 400.934479,463.354980 
	C392.120453,447.606812 397.121674,424.717560 411.613739,413.804626 
	C422.044250,405.950165 434.086243,403.432800 446.725861,402.732605 
	C451.791290,402.452026 456.623932,401.535370 461.012695,398.051727 
z"/>
<path fill="#000000" opacity="1.000000" stroke="none" 
	d="
M537.126221,390.351746 
	C545.349854,387.037445 551.031860,381.336670 555.809631,374.560059 
	C556.763184,373.207520 557.709595,371.793793 558.913635,370.684296 
	C562.979797,366.937683 567.379517,368.181396 568.616699,373.590881 
	C570.816956,383.211700 566.973694,390.996307 560.056519,397.192230 
	C551.744446,404.637665 541.405273,407.645294 530.583862,409.529022 
	C522.727173,410.896698 515.380188,410.251892 508.441071,406.231659 
	C507.152832,405.485260 505.826263,404.709320 504.761627,403.691467 
	C502.036469,401.086060 499.540527,398.039215 501.202789,394.073029 
	C502.938416,389.931854 506.689758,390.019531 510.586395,390.633240 
	C519.301758,392.005829 528.052185,393.167480 537.126221,390.351746 
z"/>
<path fill="#000000" opacity="1.000000" stroke="none" 
	d="
M478.907745,431.504211 
	C480.800079,432.160248 482.371521,432.714783 483.867157,433.428314 
	C491.446869,437.044525 498.380920,436.164124 504.677612,430.555176 
	C505.299377,430.001312 505.927368,429.447479 506.600128,428.959320 
	C508.110443,427.863312 509.708588,426.809296 511.654114,427.715179 
	C513.716980,428.675690 513.539429,430.708618 513.529480,432.503204 
	C513.489075,439.791046 506.393219,446.218079 497.640320,446.979309 
	C490.459961,447.603821 480.460571,441.654449 477.639679,435.065613 
	C477.035614,433.654663 476.307007,432.178375 478.907745,431.504211 
z"/>
<path fill="#000000" opacity="1.000000" stroke="none" 
	d="
M552.260498,247.271057 
	C559.173340,239.636581 567.154297,235.125046 577.427551,235.730804 
	C583.460754,236.086563 587.864319,240.805557 587.679504,247.494843 
	C574.448853,244.371536 562.598511,250.158340 550.591736,254.042297 
	C548.911926,250.682693 550.895996,249.241577 552.260498,247.271057 
z"/>
<path fill="#000000" opacity="1.000000" stroke="none" 
	d="
M483.603027,614.393127 
	C500.673126,605.425781 519.095154,614.898071 521.717957,633.621155 
	C522.883667,641.942566 515.949890,653.929749 506.891510,657.648071 
	C502.328583,659.520996 501.236938,662.025513 501.258179,666.587402 
	C501.423584,702.084595 501.299133,737.583069 501.395630,773.080811 
	C501.414154,779.895264 501.880035,786.718018 502.388947,793.518188 
	C502.708191,797.784302 500.546936,798.624268 496.964813,798.366821 
	C493.615875,798.126099 489.864685,799.338623 489.899536,793.520020 
	C489.970367,781.691528 490.070923,769.873047 490.384186,758.044312 
	C490.674774,747.071716 489.896759,736.073853 489.707245,725.085022 
	C489.359650,704.929932 490.332153,684.758789 488.967285,664.614990 
	C488.807556,662.258240 488.599396,660.319336 486.039795,658.846619 
	C467.261383,648.041443 466.046417,627.463623 483.603027,614.393127 
z"/>
</svg>