<?xml version="1.0" encoding="UTF-8"?>
<svg version="1.1" xmlns="http://www.w3.org/2000/svg" width="500" height="165">
<path d="M0 0 C165 0 330 0 500 0 C500 54.45 500 108.9 500 165 C335 165 170 165 0 165 C0 110.55 0 56.1 0 0 Z " fill="#F1F1F1" transform="translate(0,0)"/>
<path d="M0 0 C2.35125 -0.061875 4.7025 -0.12375 7.125 -0.1875 C7.85348145 -0.21481201 8.58196289 -0.24212402 9.33251953 -0.27026367 C14.00189321 -0.32915325 17.05740926 0.53588079 21 3 C23.80168958 6.24406162 24.9043675 8.23494 25.4375 12.5 C24.84348952 17.25208386 23.58576214 20.56290306 20 23.8125 C15.84840332 26.27751053 11.97580879 26.11867246 7.3125 26.0625 C3.6928125 26.0315625 3.6928125 26.0315625 0 26 C0 17.42 0 8.84 0 0 Z " fill="#E8E9E9" transform="translate(357,69)"/>
<path d="M0 0 C2.7421875 2.03515625 2.7421875 2.03515625 5 5 C5.36771245 7.8387401 5.48630804 10.01820151 5.3125 12.8125 C5.28994141 13.50537109 5.26738281 14.19824219 5.24414062 14.91210938 C5.18562661 16.60901573 5.0959548 18.30479861 5 20 C4.14921875 19.73123047 4.14921875 19.73123047 3.28125 19.45703125 C0.74539701 18.94899221 -0.9715108 19.21557308 -3.5 19.6875 C-7.65248815 20.21512638 -7.65248815 20.21512638 -10.625 18.375 C-12 16 -12 16 -11.9375 13.375 C-11 11 -11 11 -8 9 C-5.51953125 8.8046875 -5.51953125 8.8046875 -2.8125 8.875 C-1.91144531 8.89304687 -1.01039063 8.91109375 -0.08203125 8.9296875 C0.60503906 8.95289062 1.29210937 8.97609375 2 9 C1.34 7.35 0.68 5.7 0 4 C-3.63 4 -7.26 4 -11 4 C-10.67 3.01 -10.34 2.02 -10 1 C-6.84203893 -0.57898053 -3.39329364 -0.81928171 0 0 Z " fill="#33353B" transform="translate(412,75)"/>
<path d="M0 0 C0.33 0.99 0.66 1.98 1 3 C-0.65 3 -2.3 3 -4 3 C-4.66 4.65 -5.32 6.3 -6 8 C-2.7 8 0.6 8 4 8 C4 6.68 4 5.36 4 4 C4.99 4 5.98 4 7 4 C7 5.32 7 6.64 7 8 C8.65 8 10.3 8 12 8 C12 8.66 12 9.32 12 10 C10.35 10 8.7 10 7 10 C7.33 14.95 7.66 19.9 8 25 C9.65 25 11.3 25 13 25 C12.67 25.99 12.34 26.98 12 28 C9.6568787 27.74438677 7.32156597 27.40729228 5 27 C3.46733418 23.93466836 3.89723529 20.73245728 3.9375 17.375 C3.94201172 16.66859375 3.94652344 15.9621875 3.95117188 15.234375 C3.96296125 13.48954725 3.98089676 11.744763 4 10 C0.7 10 -2.6 10 -6 10 C-6 15.94 -6 21.88 -6 28 C-6.99 28 -7.98 28 -9 28 C-9 22.06 -9 16.12 -9 10 C-9.99 10 -10.98 10 -12 10 C-12 9.34 -12 8.68 -12 8 C-11.01 8 -10.02 8 -9 8 C-9.061875 7.236875 -9.12375 6.47375 -9.1875 5.6875 C-9 3 -9 3 -7.875 1.1875 C-5.22464043 -0.49106106 -3.06753576 -0.20450238 0 0 Z " fill="#2B2D33" transform="translate(433,67)"/>
<path d="M0 0 C2.35125 -0.061875 4.7025 -0.12375 7.125 -0.1875 C7.85348145 -0.21481201 8.58196289 -0.24212402 9.33251953 -0.27026367 C14.00189321 -0.32915325 17.05740926 0.53588079 21 3 C23.80168958 6.24406162 24.9043675 8.23494 25.4375 12.5 C24.84348952 17.25208386 23.58576214 20.56290306 20 23.8125 C15.84840332 26.27751053 11.97580879 26.11867246 7.3125 26.0625 C3.6928125 26.0315625 3.6928125 26.0315625 0 26 C0 17.42 0 8.84 0 0 Z M3 2 C3 9.26 3 16.52 3 24 C13.09795912 24.64191116 13.09795912 24.64191116 20 20 C22.46141247 16.3078813 22.68650207 13.28645195 22 9 C19.64067255 5.12396205 18.13008812 4.06504406 14 2 C10.37 2 6.74 2 3 2 Z " fill="#34353B" transform="translate(357,69)"/>
<path d="M0 0 C0.99 0 1.98 0 3 0 C3.33 3.3 3.66 6.6 4 10 C4.99 9.34 5.98 8.68 7 8 C10.62734675 7.52686781 12.46983726 7.70125136 15.67578125 9.5078125 C18.3866615 12.4146051 18.52830386 14.12963019 18.43945312 18.0390625 C18.39755859 18.76867187 18.35566406 19.49828125 18.3125 20.25 C18.28994141 20.99507812 18.26738281 21.74015625 18.24414062 22.5078125 C18.18543561 24.339409 18.09575757 26.16996653 18 28 C17.01 28 16.02 28 15 28 C14.93941406 26.92878906 14.87882812 25.85757813 14.81640625 24.75390625 C14.73201463 23.35675609 14.64736594 21.95962143 14.5625 20.5625 C14.52318359 19.85544922 14.48386719 19.14839844 14.44335938 18.41992188 C14.52375562 14.91309581 14.52375562 14.91309581 13 12 C9.54178598 11.74996036 9.54178598 11.74996036 6 12 C3.14206684 14.85793316 3.59200059 17.14665584 3.375 21.125 C3.30023438 22.40632813 3.22546875 23.68765625 3.1484375 25.0078125 C3.09945313 25.99523437 3.05046875 26.98265625 3 28 C2.01 28 1.02 28 0 28 C0 18.76 0 9.52 0 0 Z " fill="#3D3F44" transform="translate(274,67)"/>
<path d="M0 0 C0.99 0 1.98 0 3 0 C3 5.94 3 11.88 3 18 C4.258125 16.906875 5.51625 15.81375 6.8125 14.6875 C7.87404297 13.76517578 7.87404297 13.76517578 8.95703125 12.82421875 C10.70136739 11.26665665 12.36778041 9.67341125 14 8 C14.99 8.33 15.98 8.66 17 9 C15.02 10.98 13.04 12.96 11 15 C12.05964233 18.27525811 13.39278645 20.61381469 15.625 23.1875 C18 26 18 26 18 28 C15.27425729 27.62669176 14.19177915 27.20805399 12.296875 25.15234375 C11.78640625 24.42144531 11.2759375 23.69054687 10.75 22.9375 C10.22921875 22.20402344 9.7084375 21.47054687 9.171875 20.71484375 C8.78515625 20.14894531 8.3984375 19.58304688 8 19 C4.53955721 21.2560908 4.53955721 21.2560908 3.25 25.1875 C3.1675 26.115625 3.085 27.04375 3 28 C2.01 28 1.02 28 0 28 C0 18.76 0 9.52 0 0 Z " fill="#3A3C41" transform="translate(334,67)"/>
<path d="M0 0 C0.99 0 1.98 0 3 0 C3.33 0.66 3.66 1.32 4 2 C4.99 1.34 5.98 0.68 7 0 C10.62734675 -0.47313219 12.46983726 -0.29874864 15.67578125 1.5078125 C18.3866615 4.4146051 18.52830386 6.12963019 18.43945312 10.0390625 C18.39755859 10.76867187 18.35566406 11.49828125 18.3125 12.25 C18.28994141 12.99507812 18.26738281 13.74015625 18.24414062 14.5078125 C18.18543561 16.339409 18.09575757 18.16996653 18 20 C17.34 20 16.68 20 16 20 C15.95101563 19.01257813 15.90203125 18.02515625 15.8515625 17.0078125 C15.73941406 15.08582031 15.73941406 15.08582031 15.625 13.125 C15.55539062 11.84882812 15.48578125 10.57265625 15.4140625 9.2578125 C15.32758894 5.91938301 15.32758894 5.91938301 13 4 C9.5 3.66666667 9.5 3.66666667 6 4 C3.14206684 6.85793316 3.59200059 9.14665584 3.375 13.125 C3.30023438 14.40632813 3.22546875 15.68765625 3.1484375 17.0078125 C3.09945313 17.99523437 3.05046875 18.98265625 3 20 C2.01 20 1.02 20 0 20 C0 13.4 0 6.8 0 0 Z " fill="#2E2F35" transform="translate(309,75)"/>
<path d="M0 0 C3.0625 0.3125 3.0625 0.3125 4.9375 1.5 C6.46909584 3.96757108 6.49072025 5.45769831 6.0625 8.3125 C4.9375 10.125 4.9375 10.125 3.0625 11.3125 C0.0625 11.75 0.0625 11.75 -2.9375 11.3125 C-4.875 9.625 -4.875 9.625 -5.9375 7.3125 C-5.61764525 2.8345335 -4.76027546 0.50641228 0 0 Z " fill="#4E84F2" transform="translate(149.9375,121.6875)"/>
<path d="M0 0 C3.0625 0.3125 3.0625 0.3125 5 1.4375 C6.0625 3.3125 6.0625 3.3125 5.875 6.375 C5.0625 9.3125 5.0625 9.3125 3.0625 11.3125 C0.125 11.6875 0.125 11.6875 -2.9375 11.3125 C-4.875 9.625 -4.875 9.625 -5.9375 7.3125 C-5.61764525 2.8345335 -4.76027546 0.50641228 0 0 Z " fill="#4E84F2" transform="translate(164.9375,43.6875)"/>
<path d="M0 0 C3.0625 0.3125 3.0625 0.3125 4.9375 1.5 C6.46909584 3.96757108 6.49072025 5.45769831 6.0625 8.3125 C4.9375 10.125 4.9375 10.125 3.0625 11.3125 C0.0625 11.75 0.0625 11.75 -2.9375 11.3125 C-4.875 9.625 -4.875 9.625 -5.9375 7.3125 C-5.61764525 2.8345335 -4.76027546 0.50641228 0 0 Z " fill="#4E84F2" transform="translate(149.9375,40.6875)"/>
<path d="M0 0 C2 2 2 2 2.3125 4.9375 C2 8 2 8 0.875 9.9375 C-1 11 -1 11 -4.0625 10.875 C-7 10 -7 10 -9 7 C-9.375 4.5 -9.375 4.5 -9 2 C-6.07557433 -1.24936186 -4.04996841 -1.38551551 0 0 Z " fill="#4D84F2" transform="translate(194,82)"/>
<path d="M0 0 C2 2 2 2 2.3125 4.9375 C2 8 2 8 0.875 9.9375 C-1 11 -1 11 -4.0625 10.875 C-7 10 -7 10 -9 7 C-9.375 4.5 -9.375 4.5 -9 2 C-6.07557433 -1.24936186 -4.04996841 -1.38551551 0 0 Z " fill="#4D84F2" transform="translate(113,82)"/>
<path d="M0 0 C2.9375 0.8125 2.9375 0.8125 4.9375 3.8125 C4.6133631 7.13490324 4.32973697 8.42026303 1.9375 10.8125 C-1.1929173 11.14552312 -3.24148298 11.28921956 -6 9.6875 C-7.0625 7.8125 -7.0625 7.8125 -6.9375 4.75 C-5.7077917 0.62169358 -4.27894903 -0.26197647 0 0 Z " fill="#4D84F2" transform="translate(135.0625,44.1875)"/>
<path d="M0 0 C3.625 0.25 3.625 0.25 5.625 1.375 C7.16797074 4.26807013 6.53756088 6.18640275 5.625 9.25 C2.625 11.25 2.625 11.25 0.125 11.0625 C-2.62887823 10.16748958 -3.84386237 9.71683286 -5.375 7.25 C-4.8235842 0.35730253 -4.8235842 0.35730253 0 0 Z " fill="#4E85F2" transform="translate(112.375,97.75)"/>
<path d="M0 0 C3.5 0.25 3.5 0.25 5.5 2.25 C5.833728 5.38704316 6.02849028 7.41554166 4.3125 10.125 C1.84492892 11.65659584 0.35480169 11.67822025 -2.5 11.25 C-4.3125 10.125 -4.3125 10.125 -5.5 8.25 C-5.8125 5.1875 -5.8125 5.1875 -5.5 2.25 C-3.5 0.25 -3.5 0.25 0 0 Z " fill="#4C83F2" transform="translate(112.5,66.75)"/>
<path d="M0 0 C1.875 1.0625 1.875 1.0625 3 3 C2.55555556 9.44444444 2.55555556 9.44444444 1 11 C-2.4375 11.1875 -2.4375 11.1875 -6 11 C-8 9 -8 9 -8.3125 6.0625 C-8 3 -8 3 -6.8125 1.125 C-4.34492892 -0.40659584 -2.85480169 -0.42822025 0 0 Z " fill="#4B83F2" transform="translate(190,65)"/>
<path d="M0 0 C1.8125 1.1875 1.8125 1.1875 3 3 C3.42822025 5.85480169 3.40659584 7.34492892 1.875 9.8125 C-0.83445834 11.52849028 -2.86295684 11.333728 -6 11 C-8 9 -8 9 -8.3125 6.0625 C-8 3 -8 3 -6.8125 1.125 C-4.34492892 -0.40659584 -2.85480169 -0.42822025 0 0 Z " fill="#4A81F2" transform="translate(138,119)"/>
<path d="M0 0 C1.875 1.0625 1.875 1.0625 3 3 C2.55555556 9.44444444 2.55555556 9.44444444 1 11 C-2.4375 11.25 -2.4375 11.25 -6 11 C-8.15502531 7.76746204 -8.46856135 6.74849077 -8 3 C-5.85607122 -0.27231235 -3.76836426 -0.56525464 0 0 Z " fill="#4981F2" transform="translate(124,110)"/>
<path d="M0 0 C1.38125018 2.76250036 1.19079306 4.94731099 1 8 C-1 10 -1 10 -3.9375 10.3125 C-7 10 -7 10 -8.875 8.8125 C-10.42229478 6.31963619 -10.50405716 4.88032665 -10 2 C-6.90069968 -1.57611576 -4.35899266 -1.25926455 0 0 Z " fill="#4A82F2" transform="translate(183,111)"/>
<path d="M0 0 C2.4375 0.75 2.4375 0.75 4.4375 2.75 C4.6875 5.75 4.6875 5.75 4.4375 8.75 C2.4375 10.75 2.4375 10.75 -1.0625 11.0625 C-2.795 10.9078125 -2.795 10.9078125 -4.5625 10.75 C-6.5625 7.75 -6.5625 7.75 -6.375 4.6875 C-5.32105756 0.87709272 -4.04091296 -0.39423541 0 0 Z " fill="#4B82F2" transform="translate(188.5625,96.25)"/>
<path d="M0 0 C1 1 1 1 1.25 3.875 C1 7 1 7 -0.1875 8.875 C-2.65507108 10.40659584 -4.14519831 10.42822025 -7 10 C-8.8125 8.8125 -8.8125 8.8125 -10 7 C-10.42674516 4.15503228 -10.36066991 2.63647631 -8.9375 0.125 C-5.85798867 -1.66310335 -3.35666727 -0.74592606 0 0 Z " fill="#4A82F2" transform="translate(183,54)"/>
<path d="M0 0 C1.33359073 6.42548263 1.33359073 6.42548263 -0.125 8.9375 C-2.63647631 10.36066991 -4.15503228 10.42674516 -7 10 C-8.875 8.9375 -8.875 8.9375 -10 7 C-9.8125 3.375 -9.8125 3.375 -9 0 C-5.93109813 -1.53445094 -3.29905734 -0.54984289 0 0 Z " fill="#4880F2" transform="translate(126,54)"/>
<path d="M0 0 C3.0625 0.3125 3.0625 0.3125 5 1.4375 C6.0625 3.3125 6.0625 3.3125 5.9375 6.375 C5.0625 9.3125 5.0625 9.3125 2.0625 11.3125 C-1.25990324 10.9883631 -2.54526303 10.70473697 -4.9375 8.3125 C-5.1875 5.3125 -5.1875 5.3125 -4.9375 2.3125 C-2.9375 0.3125 -2.9375 0.3125 0 0 Z " fill="#4981F2" transform="translate(165.9375,118.6875)"/>
<path d="M0 0 C6.6 0 13.2 0 20 0 C20 0.66 20 1.32 20 2 C17.03 2 14.06 2 11 2 C11 9.92 11 17.84 11 26 C10.34 26 9.68 26 9 26 C9 18.08 9 10.16 9 2 C6.03 2 3.06 2 0 2 C0 1.34 0 0.68 0 0 Z " fill="#1E2026" transform="translate(250,69)"/>
<path d="M0 0 C0.99 0 1.98 0 3 0 C3.33 0.66 3.66 1.32 4 2 C4.99 1.34 5.98 0.68 7 0 C7.99 0 8.98 0 10 0 C10 0.99 10 1.98 10 3 C8.7934375 3.4640625 8.7934375 3.4640625 7.5625 3.9375 C5.10919595 4.76335345 5.10919595 4.76335345 4 6 C3.76472227 8.34987262 3.58613583 10.70556039 3.4375 13.0625 C3.35371094 14.35285156 3.26992188 15.64320312 3.18359375 16.97265625 C3.12300781 17.97167969 3.06242187 18.97070312 3 20 C2.01 20 1.02 20 0 20 C0 13.4 0 6.8 0 0 Z " fill="#3D3E43" transform="translate(387,75)"/>
<path d="M0 0 C0.66 0 1.32 0 2 0 C2 3.96 2 7.92 2 12 C2.66 12 3.32 12 4 12 C3.67 17.28 3.34 22.56 3 28 C2.01 28 1.02 28 0 28 C0 18.76 0 9.52 0 0 Z " fill="#323439" transform="translate(274,67)"/>
<path d="M0 0 C0.99 0.33 1.98 0.66 3 1 C1.02 2.98 -0.96 4.96 -3 7 C-1.94035767 10.27525811 -0.60721355 12.61381469 1.625 15.1875 C4 18 4 18 4 20 C1.28155477 19.62930292 0.21439265 19.24260221 -1.6328125 17.15234375 C-2.12523437 16.42144531 -2.61765625 15.69054687 -3.125 14.9375 C-4.55896197 12.76236815 -4.55896197 12.76236815 -6 11 C-6.66 11 -7.32 11 -8 11 C-6.52670958 5.99081256 -3.72484762 3.48192278 0 0 Z " fill="#2D2F34" transform="translate(348,75)"/>
<path d="M0 0 C1.23556641 0.01740234 1.23556641 0.01740234 2.49609375 0.03515625 C3.32238281 0.04417969 4.14867187 0.05320312 5 0.0625 C5.63808594 0.07410156 6.27617187 0.08570312 6.93359375 0.09765625 C6.62109375 2.47265625 6.62109375 2.47265625 5.93359375 5.09765625 C2.70985698 7.2468141 1.66655701 7.48052428 -2.06640625 7.09765625 C-2.72640625 6.43765625 -3.38640625 5.77765625 -4.06640625 5.09765625 C-3.31779097 0.15679541 -3.31779097 0.15679541 0 0 Z " fill="#EAEAEB" transform="translate(407.06640625,85.90234375)"/>
<path d="M0 0 C0.99 0 1.98 0 3 0 C3 6.6 3 13.2 3 20 C2.01 20 1.02 20 0 20 C0 13.4 0 6.8 0 0 Z " fill="#3C3D42" transform="translate(299,75)"/>
<path d="M0 0 C0.66 0 1.32 0 2 0 C2 1.32 2 2.64 2 4 C2.66 4 3.32 4 4 4 C3.67 9.28 3.34 14.56 3 20 C2.01 20 1.02 20 0 20 C0 13.4 0 6.8 0 0 Z " fill="#3D3E43" transform="translate(309,75)"/>
<path d="M0 0 C0.99 0.33 1.98 0.66 3 1 C2.814375 1.763125 2.62875 2.52625 2.4375 3.3125 C1.77180827 6.08967375 1.77180827 6.08967375 3 9 C4.65 9 6.3 9 8 9 C8 9.33 8 9.66 8 10 C4.39991481 10.32728047 2.58388508 10.40422813 -0.4375 8.3125 C-2 6 -2 6 -1.8125 3.3125 C-1 1 -1 1 0 0 Z " fill="#414247" transform="translate(402,85)"/>
<path d="M0 0 C0.33 0 0.66 0 1 0 C1.33 4.95 1.66 9.9 2 15 C3.65 15 5.3 15 7 15 C6.67 15.99 6.34 16.98 6 18 C3.69 17.67 1.38 17.34 -1 17 C-0.67 11.39 -0.34 5.78 0 0 Z " fill="#525358" transform="translate(439,77)"/>
<path d="M0 0 C-0.33 0.99 -0.66 1.98 -1 3 C-4.3 3.33 -7.6 3.66 -11 4 C-10.67 3.01 -10.34 2.02 -10 1 C-6.78548731 -0.60725635 -3.56387464 -0.05748185 0 0 Z " fill="#4E5054" transform="translate(412,75)"/>
<path d="M0 0 C0.33 0.99 0.66 1.98 1 3 C-0.1446875 2.9690625 -0.1446875 2.9690625 -1.3125 2.9375 C-4.10185786 2.87057159 -4.10185786 2.87057159 -7 4 C-8.20882096 6.00016466 -8.20882096 6.00016466 -9 8 C-9.22223194 5.25913944 -9.34781139 3.56036279 -7.875 1.1875 C-5.22464043 -0.49106106 -3.06753576 -0.20450238 0 0 Z " fill="#4C4E53" transform="translate(433,67)"/>
<path d="M0 0 C0.66 0.66 1.32 1.32 2 2 C2.99 1.34 3.98 0.68 5 0 C5.99 0 6.98 0 8 0 C8 0.99 8 1.98 8 3 C6.02253397 3.73080266 4.01927511 4.39421747 2 5 C1.34 4.67 0.68 4.34 0 4 C0 2.68 0 1.36 0 0 Z " fill="#36383D" transform="translate(389,75)"/>
<path d="M0 0 C2.3125 -0.25 2.3125 -0.25 5 0 C6.8125 2 6.8125 2 8 4 C4 4 4 4 1.75 2 C1.1725 1.34 0.595 0.68 0 0 Z " fill="#2F3137" transform="translate(319,76)"/>
</svg>
